<?xml version="1.0" encoding="UTF-8" standalone="no"?>
<!DOCTYPE svg PUBLIC "-//W3C//DTD SVG 1.1//EN" "http://www.w3.org/Graphics/SVG/1.1/DTD/svg11.dtd">
<svg width="100%" height="100%" viewBox="0 0 2040 520" version="1.1" xmlns="http://www.w3.org/2000/svg" xmlns:xlink="http://www.w3.org/1999/xlink" xml:space="preserve" xmlns:serif="http://www.serif.com/" style="fill-rule:evenodd;clip-rule:evenodd;stroke-linejoin:round;stroke-miterlimit:2;">
    <g id="Artboard1" transform="matrix(1.0099,0,0,1,0,0)">
        <rect x="0" y="0" width="2020" height="520" style="fill:none;"/>
        <g transform="matrix(0.990196,0,0,1,493.118,-252)">
            <g transform="matrix(1.0365,0,0,1.01913,-787.676,-35.4256)">
                <path d="M525.858,357.037C519.849,356.423 513.752,356.109 507.582,356.109C409.321,356.109 329.547,435.884 329.547,534.144C329.547,578.641 345.906,619.348 372.934,650.572L353.931,675.484C319.691,638.285 298.771,588.638 298.771,534.144C298.771,418.898 392.336,325.333 507.582,325.333C518.249,325.333 528.73,326.135 538.969,327.681C533.256,336.643 528.8,346.516 525.858,357.037ZM704.111,463.473C712.06,485.549 716.392,509.344 716.392,534.144C716.392,649.39 622.827,742.955 507.582,742.955C479.076,742.955 451.897,737.23 427.133,726.87L455.784,704.514C472.177,709.498 489.569,712.179 507.582,712.179C605.842,712.179 685.617,632.404 685.617,534.144C685.617,516.422 683.022,499.301 678.191,483.141C687.795,477.944 696.529,471.292 704.111,463.473Z" style="fill:white;"/>
            </g>
            <g transform="matrix(0.778408,0,0,0.781353,-664.17,104.127)">
                <path d="M598.236,443.425L564.73,499.279L727.472,498.646L261.295,824.048L477.883,564.662L348.101,562.362L546.926,380.457C557.588,406.106 575.56,427.964 598.236,443.425ZM743.848,200.293L744.373,199.812L744.028,200.388C743.968,200.356 743.908,200.324 743.848,200.293Z" style="fill:white;"/>
            </g>
            <g transform="matrix(0.851648,0,0,0.854869,-730.401,63.9217)">
                <path d="M697.511,253.315C748.147,253.315 789.256,294.424 789.256,345.06C789.256,395.696 748.147,436.805 697.511,436.805C646.875,436.805 605.766,395.696 605.766,345.06C605.766,294.424 646.875,253.315 697.511,253.315ZM684.123,354.346L684.123,396.755C684.123,398.865 685.836,400.579 687.946,400.579L709.701,400.579C711.811,400.579 713.524,398.865 713.524,396.755L713.524,354.346L755.933,354.346C758.043,354.346 759.756,352.633 759.756,350.523L759.756,328.769C759.756,326.659 758.043,324.945 755.933,324.945L713.524,324.945L713.524,282.536C713.524,280.426 711.811,278.713 709.701,278.713L687.946,278.713C685.836,278.713 684.123,280.426 684.123,282.536L684.123,324.945L641.714,324.945C639.604,324.945 637.891,326.659 637.891,328.769L637.891,350.523C637.891,352.633 639.604,354.346 641.714,354.346L684.123,354.346Z" style="fill:white;"/>
            </g>
            <g transform="matrix(3.24891,0,0,1.77852,-1357.03,-531.2)">
                <path d="M416.062,577.283L416.062,472.379L437.108,472.379C441.061,472.379 444.425,473.051 447.2,474.395C449.974,475.739 452.239,477.635 453.993,480.083C455.746,482.531 457.023,485.507 457.821,489.011C458.619,492.515 459.019,496.427 459.019,500.747C459.019,503.099 458.835,505.367 458.469,507.551C458.102,509.735 457.526,511.787 456.741,513.707C455.956,515.627 454.948,517.367 453.718,518.927C452.487,520.487 451.008,521.843 449.281,522.995C453.05,524.675 455.838,527.399 457.644,531.167C459.45,534.935 460.354,539.771 460.354,545.675C460.354,550.139 459.882,554.291 458.94,558.131C457.998,561.971 456.617,565.319 454.797,568.175C452.978,571.031 450.733,573.263 448.063,574.871C445.393,576.479 442.344,577.283 438.914,577.283L416.062,577.283ZM429.334,532.787L429.334,558.923L438.679,558.923C440.433,558.923 441.866,558.515 442.978,557.699C444.091,556.883 444.961,555.827 445.59,554.531C446.218,553.235 446.65,551.771 446.885,550.139C447.121,548.507 447.239,546.851 447.239,545.171C447.239,543.251 447.101,541.523 446.827,539.987C446.552,538.451 446.08,537.155 445.413,536.099C444.745,535.043 443.862,534.227 442.763,533.651C441.663,533.075 440.276,532.787 438.6,532.787L429.334,532.787ZM429.334,516.515L436.244,516.515C437.71,516.515 439.032,516.323 440.21,515.939C441.388,515.555 442.389,514.883 443.214,513.923C444.039,512.963 444.667,511.643 445.099,509.963C445.531,508.283 445.747,506.171 445.747,503.627C445.747,501.131 445.577,499.055 445.236,497.399C444.896,495.743 444.372,494.411 443.666,493.403C442.959,492.395 442.062,491.675 440.976,491.243C439.89,490.811 438.6,490.595 437.108,490.595L429.334,490.595L429.334,516.515Z" style="fill:white;fill-rule:nonzero;"/>
                <path d="M524.043,524.795C524.043,532.379 523.329,539.435 521.903,545.963C520.476,552.491 518.467,558.167 515.875,562.991C513.284,567.815 510.162,571.595 506.51,574.331C502.859,577.067 498.808,578.435 494.358,578.435C489.908,578.435 485.85,577.067 482.185,574.331C478.521,571.595 475.386,567.815 472.781,562.991C470.177,558.167 468.161,552.491 466.734,545.963C465.308,539.435 464.594,532.379 464.594,524.795C464.594,517.211 465.308,510.155 466.734,503.627C468.161,497.099 470.177,491.435 472.781,486.635C475.386,481.835 478.521,478.067 482.185,475.331C485.85,472.595 489.908,471.227 494.358,471.227C498.808,471.227 502.859,472.607 506.51,475.367C510.162,478.127 513.284,481.907 515.875,486.707C518.467,491.507 520.476,497.171 521.903,503.699C523.329,510.227 524.043,517.259 524.043,524.795ZM510.457,524.795C510.457,519.611 510.09,514.943 509.357,510.791C508.624,506.639 507.571,503.123 506.196,500.243C504.822,497.363 503.14,495.155 501.151,493.619C499.161,492.083 496.897,491.315 494.358,491.315C491.792,491.315 489.508,492.083 487.506,493.619C485.503,495.155 483.815,497.363 482.441,500.243C481.066,503.123 480.013,506.639 479.28,510.791C478.547,514.943 478.18,519.611 478.18,524.795C478.18,530.027 478.547,534.719 479.28,538.871C480.013,543.023 481.066,546.539 482.441,549.419C483.815,552.299 485.503,554.495 487.506,556.007C489.508,557.519 491.792,558.275 494.358,558.275C496.897,558.275 499.161,557.519 501.151,556.007C503.14,554.495 504.822,552.299 506.196,549.419C507.571,546.539 508.624,543.023 509.357,538.871C510.09,534.719 510.457,530.027 510.457,524.795Z" style="fill:white;fill-rule:nonzero;"/>
                <path d="M543.676,557.843L564.879,557.843L564.879,577.283L530.404,577.283L530.404,472.379L543.676,472.379L543.676,557.843Z" style="fill:white;fill-rule:nonzero;"/>
                <path d="M605.637,472.379L605.637,491.675L589.538,491.675L589.538,577.283L576.266,577.283L576.266,491.675L560.167,491.675L560.167,472.379L605.637,472.379Z" style="fill:white;fill-rule:nonzero;"/>
                <path d="M469.306,697.283L459.019,697.283C457.867,697.283 456.918,696.791 456.172,695.807C455.426,694.823 454.909,693.563 454.621,692.027L451.244,673.739L429.491,673.739L426.114,692.027C425.852,693.371 425.342,694.583 424.582,695.663C423.823,696.743 422.894,697.283 421.795,697.283L411.428,697.283L433.574,592.379L447.16,592.379L469.306,697.283ZM432.553,657.179L448.181,657.179L442.92,628.451C442.579,626.627 442.18,624.479 441.722,622.007C441.264,619.535 440.812,616.859 440.367,613.979C439.948,616.907 439.517,619.619 439.072,622.115C438.627,624.611 438.208,626.771 437.815,628.595L432.553,657.179Z" style="fill:white;fill-rule:nonzero;"/>
                <path d="M525.849,644.795C525.849,652.379 525.136,659.375 523.709,665.783C522.282,672.191 520.273,677.735 517.682,682.415C515.09,687.095 511.968,690.743 508.317,693.359C504.665,695.975 500.614,697.283 496.164,697.283L473.94,697.283L473.94,592.379L496.164,592.379C500.614,592.379 504.665,593.699 508.317,596.339C511.968,598.979 515.09,602.627 517.682,607.283C520.273,611.939 522.282,617.471 523.709,623.879C525.136,630.287 525.849,637.259 525.849,644.795ZM512.263,644.795C512.263,639.611 511.896,634.931 511.163,630.755C510.431,626.579 509.377,623.039 508.003,620.135C506.628,617.231 504.946,614.999 502.957,613.439C500.967,611.879 498.703,611.099 496.164,611.099L487.29,611.099L487.29,678.563L496.164,678.563C498.703,678.563 500.967,677.783 502.957,676.223C504.946,674.663 506.628,672.431 508.003,669.527C509.377,666.623 510.431,663.083 511.163,658.907C511.896,654.731 512.263,650.027 512.263,644.795Z" style="fill:white;fill-rule:nonzero;"/>
                <path d="M525.142,592.379L535.822,592.379C536.974,592.379 537.917,592.859 538.65,593.819C539.382,594.779 539.906,596.051 540.22,597.635L551.293,653.795C551.79,656.243 552.294,658.907 552.805,661.787C553.315,664.667 553.793,667.691 554.238,670.859C554.605,667.691 555.03,664.667 555.514,661.787C555.998,658.907 556.476,656.243 556.947,653.795L567.942,597.635C568.204,596.291 568.714,595.079 569.473,593.999C570.232,592.919 571.162,592.379 572.261,592.379L583.02,592.379L560.089,697.283L548.073,697.283L525.142,592.379Z" style="fill:white;fill-rule:nonzero;"/>
                <path d="M633.123,697.283L622.835,697.283C621.684,697.283 620.735,696.791 619.989,695.807C619.243,694.823 618.726,693.563 618.438,692.027L615.061,673.739L593.307,673.739L589.931,692.027C589.669,693.371 589.158,694.583 588.399,695.663C587.64,696.743 586.711,697.283 585.611,697.283L575.245,697.283L597.391,592.379L610.977,592.379L633.123,697.283ZM596.37,657.179L611.998,657.179L606.736,628.451C606.396,626.627 605.997,624.479 605.539,622.007C605.081,619.535 604.629,616.859 604.184,613.979C603.765,616.907 603.333,619.619 602.888,622.115C602.443,624.611 602.024,626.771 601.632,628.595L596.37,657.179Z" style="fill:white;fill-rule:nonzero;"/>
                <path d="M644.746,592.379C645.322,592.379 645.806,592.427 646.198,592.523C646.591,592.619 646.945,592.799 647.259,593.063C647.573,593.327 647.874,593.699 648.162,594.179C648.45,594.659 648.777,595.307 649.143,596.123L676.315,659.123C676.211,657.107 676.132,655.151 676.08,653.255C676.027,651.359 676.001,649.571 676.001,647.891L676.001,592.379L687.702,592.379L687.702,697.283L680.792,697.283C679.771,697.283 678.907,696.995 678.2,696.419C677.493,695.843 676.813,694.787 676.158,693.251L649.183,630.755C649.261,632.579 649.327,634.367 649.379,636.119C649.431,637.871 649.458,639.515 649.458,641.051L649.458,697.283L637.756,697.283L637.756,592.379L644.746,592.379Z" style="fill:white;fill-rule:nonzero;"/>
                <path d="M738.669,592.379L738.669,611.675L722.57,611.675L722.57,697.283L709.299,697.283L709.299,611.675L693.2,611.675L693.2,592.379L738.669,592.379Z" style="fill:white;fill-rule:nonzero;"/>
                <path d="M791.128,697.283L780.841,697.283C779.689,697.283 778.74,696.791 777.994,695.807C777.248,694.823 776.731,693.563 776.443,692.027L773.066,673.739L751.313,673.739L747.936,692.027C747.674,693.371 747.164,694.583 746.405,695.663C745.646,696.743 744.716,697.283 743.617,697.283L733.251,697.283L755.397,592.379L768.983,592.379L791.128,697.283ZM754.376,657.179L770.003,657.179L764.742,628.451C764.402,626.627 764.002,624.479 763.544,622.007C763.086,619.535 762.635,616.859 762.19,613.979C761.771,616.907 761.339,619.619 760.894,622.115C760.449,624.611 760.03,626.771 759.637,628.595L754.376,657.179Z" style="fill:white;fill-rule:nonzero;"/>
                <path d="M820.342,679.715C822.175,679.715 823.798,679.427 825.211,678.851C826.625,678.275 827.96,677.507 829.216,676.547L829.216,660.635L823.562,660.635C822.724,660.635 822.07,660.227 821.599,659.411C821.127,658.595 820.892,657.563 820.892,656.315L820.892,642.923L841.232,642.923L841.232,687.203C839.766,689.171 838.241,690.863 836.657,692.279C835.073,693.695 833.385,694.859 831.592,695.771C829.799,696.683 827.888,697.355 825.859,697.787C823.83,698.219 821.651,698.435 819.321,698.435C815.133,698.435 811.259,697.079 807.699,694.367C804.138,691.655 801.056,687.911 798.452,683.135C795.847,678.359 793.805,672.695 792.326,666.143C790.847,659.591 790.108,652.475 790.108,644.795C790.108,636.971 790.814,629.783 792.228,623.231C793.641,616.679 795.664,611.027 798.294,606.275C800.925,601.523 804.106,597.827 807.836,595.187C811.566,592.547 815.735,591.227 820.342,591.227C822.724,591.227 824.962,591.587 827.057,592.307C829.151,593.027 831.081,594.011 832.848,595.259C834.615,596.507 836.232,597.995 837.698,599.723C839.164,601.451 840.472,603.323 841.624,605.339L837.776,616.067C837.41,617.075 836.971,617.867 836.461,618.443C835.95,619.019 835.394,619.307 834.792,619.307C834.007,619.307 833.195,618.827 832.357,617.867C831.31,616.715 830.322,615.719 829.393,614.879C828.464,614.039 827.515,613.355 826.546,612.827C825.578,612.299 824.557,611.915 823.483,611.675C822.41,611.435 821.206,611.315 819.871,611.315C817.384,611.315 815.146,612.119 813.157,613.727C811.167,615.335 809.472,617.603 808.072,620.531C806.671,623.459 805.591,626.975 804.832,631.079C804.073,635.183 803.693,639.755 803.693,644.795C803.693,650.363 804.112,655.307 804.95,659.627C805.788,663.947 806.946,667.595 808.425,670.571C809.904,673.547 811.658,675.815 813.687,677.375C815.715,678.935 817.934,679.715 820.342,679.715Z" style="fill:white;fill-rule:nonzero;"/>
                <path d="M886.152,592.379L886.152,611.099L862.671,611.099L862.671,635.579L880.654,635.579L880.654,653.579L862.671,653.579L862.671,678.563L886.152,678.563L886.152,697.283L849.32,697.283L849.32,592.379L886.152,592.379Z" style="fill:white;fill-rule:nonzero;"/>
            </g>
        </g>
    </g>
</svg>
